<svg id="Layer_1" data-name="Layer 1" xmlns="http://www.w3.org/2000/svg" viewBox="0 0 1778.49 360"><defs><style>.cls-1{fill:#231f20;}</style></defs><title>mobel</title><path class="cls-1" d="M70.76,717.5V360h67l165.5,116h2.5l165.5-116h67V717.5h-80V460l-113.5,76V717.5h-80V536l-114-76V717.5Z" transform="translate(-70.76 -360)"/><path class="cls-1" d="M732.76,720q-67,0-104.5-33.25T590.76,589q0-65,37.5-98.25t104.5-33.25h92.5q67,0,104.5,33.25T967.26,589q0,64.5-37.5,97.75T825.26,720Zm-68-311.5V372a10,10,0,0,1,10-10h53.5a10,10,0,0,1,10,10v36.5a10,10,0,0,1-10,10h-53.5A10,10,0,0,1,664.76,408.5Zm68,254h92.5q32.49,0,49.75-18T892.26,589q0-38-17.25-56t-49.75-18h-92.5q-32.52,0-49.75,18t-17.25,56q0,37.5,17.25,55.5T732.76,662.5Zm87-254V372a10,10,0,0,1,10-10h53.5a10,10,0,0,1,10,10v36.5a10,10,0,0,1-10,10h-53.5A10,10,0,0,1,819.76,408.5Z" transform="translate(-70.76 -360)"/><path class="cls-1" d="M1012.25,717.5V360h72.5V717.5Zm12.5,0V660h172.5q32.51,0,49.75-17.75T1264.25,589q0-36-17.25-53.75t-49.75-17.75h-167.5V460h167.5q67,0,104.5,33t37.5,96q0,62.5-37.5,95.5t-104.5,33Z" transform="translate(-70.76 -360)"/><path class="cls-1" d="M1516.25,720q-67,0-104.5-33.25T1374.25,589q0-65,37.5-98.25t104.5-33.25h125q44,0,67.25,20.75t23.25,59.25q0,78.51-90.5,78.5h-189q10.5,46.5,64,46.5h202.5V720Zm0-205q-51.51,0-63.5,43.5h185q10,0,15.75-6t5.75-16.5q0-21-21.5-21Z" transform="translate(-70.76 -360)"/><path class="cls-1" d="M1776.74,717.5V360h72.5V717.5Z" transform="translate(-70.76 -360)"/></svg>